<svg width="818" height="775" viewBox="0 0 818 775" fill="none" xmlns="http://www.w3.org/2000/svg"><ellipse cx="408.5" cy="446" rx="334.5" ry="329" fill="#F1F4F9"/><g filter="url(#filter0_d)"><ellipse cx="408.5" cy="446" rx="212.5" ry="209" fill="#fff"/></g><ellipse cx="408.5" cy="446" rx="153.5" ry="151" fill="#004583"/><g filter="url(#filter1_d)"><circle cx="115" cy="632" r="80" fill="#ED5045"/></g><g clip-path="url(#clip0)"><path d="M101.428 595.066a1.492 1.492 0 00.478 2.028c.347.221.737.265 1.099.176.362-.088.68-.323.882-.661.42-.69.203-1.587-.477-2.013-.665-.441-1.562-.22-1.982.47z" fill="#fff"/><path d="M115.864 614.904l-4.021 3.982a1.48 1.48 0 00-.029 2.072c.376.382.911.529 1.389.396.245-.058.462-.191.665-.367l4.021-3.982 2.097 2.16 2.112-2.013-.463-.456-1.663-1.748 4.007-3.982a1.48 1.48 0 00.028-2.072 1.424 1.424 0 00-2.039-.029l-4.007 3.967-2.112-2.204 6.755-6.686a1.48 1.48 0 00.029-2.072 1.425 1.425 0 00-2.039-.029l-6.755 6.686-2.112-2.204 4.007-3.968a1.481 1.481 0 00.029-2.072 1.427 1.427 0 00-2.04-.029l-4.006 3.967-2.185-2.233c2.315-2.586 3.964-5.599 4.05-8.126a1.461 1.461 0 00-.405-1.073c-4.078-4.261-9.763-6.318-15.592-5.657-2.676.309-4.094 1.705-4.455 4.408-.796 5.907 1.085 11.741 5.178 16.002.275.279.651.441 1.041.441.55 0 1.129-.088 1.707-.235 2.083-.529 4.369-1.91 6.408-3.703l2.141 2.233-4.021 3.982a1.48 1.48 0 00-.029 2.072c.376.382.911.529 1.388.397.246-.059.463-.191.666-.367l4.021-3.982 2.112 2.204-6.77 6.7a1.481 1.481 0 00-.029 2.072c.376.382.912.529 1.389.397.246-.059.463-.191.665-.368l6.77-6.7 2.097 2.219zm-11.355-13.989c-.014 0-.014.015 0 0l-.029.03c-2.242 2.218-4.744 3.746-6.58 4.04-3.14-3.556-4.572-8.272-3.92-13.048.187-1.366.563-1.734 1.909-1.895 4.715-.529 9.315 1.028 12.728 4.32-.332 1.851-1.88 4.334-4.108 6.553z" fill="#fff"/><path d="M149.19 606.322l-3.674-3.747a2.69 2.69 0 00-3.876 0l-2.156 2.189a4.156 4.156 0 00-5.728.206l-14.652 14.87-2.676 2.498h4.31l15.043-15.282a1.287 1.287 0 011.837 0l7.16 7.274c.246.25.376.588.376.94 0 .353-.13.691-.376.941l-6.046 6.142h4.094l4.006-4.07c1.562-1.587 1.635-4.144.203-5.819l2.155-2.19a2.834 2.834 0 000-3.952zm-4.195 4.055l-3.471-3.526 2.039-2.087 3.486 3.541-2.054 2.072z" fill="#004583"/><path d="M107.359 659.72c-.434-2.689-1.635-4.951-1.635-4.951a14.49 14.49 0 00-3.326-3.982l-2.778-2.337c.29-.264.478-.661.478-1.087 0-.808-.651-1.469-1.447-1.469h-.709l1.722-5.07a3.828 3.828 0 00-.492-3.438 3.706 3.706 0 00-3.037-1.587h-8.592c-1.2 0-2.344.588-3.038 1.587a3.871 3.871 0 00-.492 3.438l1.722 5.07h-.71c-.795 0-1.446.661-1.446 1.469 0 .441.188.823.478 1.087l-2.778 2.337A14.904 14.904 0 0076 662.204C76 670.359 82.538 677 90.566 677h2.545c6.466 0 11.962-4.305 13.857-10.241.507-2.219.81-4.394.391-7.039zm-20.496-20.63a.802.802 0 01.68-.352h8.591a.8.8 0 01.68.352.896.896 0 01.116.779l-2.054 6.025h-6.075l-2.054-6.025a.85.85 0 01.116-.779zm6.248 34.972h-2.545c-6.437 0-11.673-5.319-11.673-11.858a11.92 11.92 0 014.238-9.14l5.02-4.232h7.376l5.034 4.232a11.896 11.896 0 014.238 9.14c-.015 6.539-5.25 11.858-11.688 11.858z" fill="#fff"/><path fill-rule="evenodd" clip-rule="evenodd" d="M148.554 622.339h-46.287c-.795 0-1.446.661-1.446 1.469v8.229c0 .808.651 1.469 1.446 1.469h1.172l2.213 21.277s1.201 2.248 1.635 4.952c.419 2.645.115 4.819-.391 7.038l.593 5.687c.275 2.6 2.416 4.555 4.976 4.555h25.819c2.574 0 4.701-1.955 4.976-4.555l4.064-38.939h1.215c.796 0 1.447-.661 1.447-1.469v-8.229a1.445 1.445 0 00-1.432-1.484zm-1.447 8.228h-15.202c-.796 0-1.446.662-1.446 1.47 0 .808.65 1.469 1.446 1.469h12.541l-4.036 38.63c-.116 1.102-1.012 1.925-2.097 1.925h-25.834a2.105 2.105 0 01-2.097-1.925l-4.036-38.63h12.541c.796 0 1.446-.661 1.446-1.469s-.65-1.47-1.446-1.47h-15.173v-5.289h43.393v5.289zm-30.267 11.937a1.333 1.333 0 011.24-1.416 1.326 1.326 0 011.412 1.238l1.813 27.881a1.333 1.333 0 01-1.24 1.415 1.326 1.326 0 01-1.412-1.237l-1.813-27.881zm15.628-1.416c.732.05 1.288.683 1.24 1.416l-1.813 27.881a1.326 1.326 0 01-1.412 1.237 1.332 1.332 0 01-1.24-1.415l1.813-27.881a1.326 1.326 0 011.412-1.238z" fill="#004583"/></g><g filter="url(#filter2_d)"><circle cx="702.5" cy="632.5" r="80.5" fill="#FD9A12"/></g><g clip-path="url(#clip1)"><path d="M695.559 614.508a44.006 44.006 0 006.544-.883 11.03 11.03 0 004.548-8.933c0-5.939-5.84-11.779-11.779-11.779-3.19 0-11.141-2.781-13.939-3.829a1.252 1.252 0 00-1.129.099 1.278 1.278 0 00-.621.949c-.082.556-1.865 13.693 5.415 20.515a15.539 15.539 0 0010.961 3.861zm-13.922-22.397c3.108 1.129 9.849 3.419 13.251 3.419 4.892.377 8.802 4.27 9.162 9.162.016 2.258-.9 4.434-2.503 6.037l-10.929-12.139a1.3 1.3 0 00-1.848-.098 1.3 1.3 0 00-.098 1.848l10.192 11.321c-5.399.72-9.587-.245-12.466-2.944-4.908-4.598-4.99-13.056-4.761-16.606zm23.82 29.366c.818 3.517 3.304 5.71 6.446 5.71 5.66 0 11.779-2.863 11.779-9.162a64.91 64.91 0 011.309-10.209 1.312 1.312 0 00-.884-1.505c-.441-.147-4.679-1.309-12.777 2.7a11.166 11.166 0 00-5.873 12.466zm6.969-10.127a21.175 21.175 0 019.374-2.732h.311a62.011 62.011 0 00-1.063 9.358c0 4.499-4.745 6.544-9.162 6.544-.311 0-.621-.033-.932-.115l5.922-8.278a1.32 1.32 0 00-.294-1.816 1.311 1.311 0 00-1.833.295l-5.873 8.245a6.497 6.497 0 01-.883-2.012c-.835-3.812.981-7.706 4.433-9.489z" fill="#fff"/><path d="M730.75 641.338c0-3.043-4.45-5.038-14.201-6.462-.72-.114-1.39.393-1.505 1.113-.114.72.393 1.39 1.113 1.505 11.779 1.734 11.975 3.926 11.975 3.926 0 1.783-9.26 5.235-26.176 5.235-16.916 0-26.176-3.452-26.176-5.235 0-1.783 9.243-5.235 26.176-5.235.72 0 1.309-.589 1.309-1.309s-.589-1.309-1.309-1.309c-13.824 0-28.679 2.454-28.794 7.853v.082c0 1.603 1.015 31.248 28.794 31.248 27.78 0 28.794-29.645 28.794-31.33v-.082zm-28.794 7.853c10.143 0 20.843-1.309 25.882-4.139-.131.916-.295 1.98-.54 3.109-1.08.556-7.853 3.648-25.342 3.648-17.489 0-24.245-3.109-25.342-3.648a54.118 54.118 0 01-.539-3.109c5.038 2.83 15.738 4.139 25.881 4.139zm0 20.941c-10.814 0-18.487-4.777-22.822-14.217a37.687 37.687 0 01-1.718-4.597c3.403 1.211 10.863 3.108 24.54 3.108s21.137-1.881 24.54-3.108a37.687 37.687 0 01-1.718 4.597c-4.335 9.44-12.008 14.217-22.822 14.217z" fill="#00386C"/><path d="M735.985 617.78c-4.336 0-7.853 4.696-7.853 10.471a11.45 11.45 0 003.926 9.08v31.493a3.917 3.917 0 003.927 3.926 3.916 3.916 0 003.926-3.926v-31.493a11.451 11.451 0 003.927-9.08c0-5.775-3.518-10.471-7.853-10.471zm1.93 17.735a1.276 1.276 0 00-.621 1.112v32.197c0 .72-.589 1.308-1.309 1.308s-1.309-.588-1.309-1.308v-32.197c0-.458-.246-.883-.622-1.112-1.996-1.227-3.305-4.09-3.305-7.281 0-4.253 2.389-7.852 5.236-7.852 2.846 0 5.235 3.599 5.235 7.852 0 3.207-1.309 6.054-3.305 7.281zm-62.135-3.338v-13.088c0-.72-.589-1.309-1.309-1.309s-1.309.589-1.309 1.309v7.853h-3.926v-7.853c0-.72-.589-1.309-1.309-1.309s-1.309.589-1.309 1.309v7.853h-3.926v-7.853c0-.72-.589-1.309-1.309-1.309s-1.309.589-1.309 1.309v13.088a5.25 5.25 0 003.927 5.072v31.575a3.916 3.916 0 003.926 3.926 3.917 3.917 0 003.927-3.926v-31.575a5.266 5.266 0 003.926-5.072zm-2.618 0a2.625 2.625 0 01-2.617 2.618c-.72 0-1.309.589-1.309 1.309v32.72c0 .72-.589 1.308-1.309 1.308s-1.309-.588-1.309-1.308v-32.72c0-.72-.589-1.309-1.308-1.309a2.626 2.626 0 01-2.618-2.618v-2.617h10.47v2.617zm24.557-11.78l-5.235 1.309c-.704.147-1.146.851-.998 1.554v.017l1.308 6.544c.082.409.377.752.753.932.164.082.36.131.556.115.229 0 .458-.066.671-.18l6.544-3.927a1.325 1.325 0 00.458-1.799c-.016-.017-.016-.033-.033-.049l-2.617-3.927c-.311-.474-.867-.72-1.407-.589zm-2.7 7.068l-.687-3.501 3.125-.786 1.309 2.013-3.747 2.274z" fill="#00386C"/><path d="M694.103 641.339a3.918 3.918 0 003.927 3.926 3.917 3.917 0 003.926-3.926 3.917 3.917 0 00-3.926-3.927 3.918 3.918 0 00-3.927 3.927zm5.235 0c0 .719-.588 1.308-1.308 1.308-.72 0-1.309-.589-1.309-1.308 0-.72.589-1.309 1.309-1.309s1.308.572 1.308 1.309z" fill="#fff"/><path d="M711.118 630.868h-5.235c-.72 0-1.309.589-1.309 1.309v7.853c0 .72.589 1.309 1.309 1.309h.212l7.853-1.309c.393-.066.736-.311.933-.655.196-.343.229-.752.081-1.128l-2.617-6.544a1.313 1.313 0 00-1.227-.835zm-3.927 7.608v-4.99h3.043l1.685 4.221-4.728.769zm-13.906 25.194c-5.726-2.324-7.035-6.774-7.035-6.97a1.303 1.303 0 00-1.587-.949 1.303 1.303 0 00-.949 1.587 14 14 0 008.638 8.753c.148.049.295.082.442.098.72 0 1.309-.589 1.309-1.309 0-.523-.327-1.014-.818-1.21zm4.745 1.227h-2.618v2.618h2.618v-2.618z" fill="#00386C"/></g><g filter="url(#filter3_d)"><circle cx="702.5" cy="259.5" r="80.5" fill="#004583"/></g><path d="M764.22 248.966h-45.392c-1.975 0-3.569 1.505-3.569 3.477v18.263c0 1.936 1.576 3.531 3.514 3.531h3.225c.923 2.689 3.821 4.051 6.484 3.137a5.163 5.163 0 003.17-3.137h17.95c.924 2.689 3.822 4.051 6.485 3.137a5.163 5.163 0 003.17-3.137h4.003c2.5 0 4.51-2.043 4.51-4.516v-17.278c.018-1.972-1.576-3.477-3.55-3.477zm-46.425 3.477c0-.592.435-1.147 1.033-1.147h5.85v9.087l-6.883 2.76v-10.7zm10.886 21.938a2.671 2.671 0 01-1.865.77c-1.449 0-2.627-1.165-2.627-2.598 0-1.434 1.178-2.599 2.627-2.599 1.449 0 2.626 1.165 2.626 2.599.018.699-.272 1.344-.761 1.828zm27.623 0a2.671 2.671 0 01-1.865.77c-1.449 0-2.627-1.165-2.627-2.598 0-1.434 1.178-2.599 2.627-2.599 1.449 0 2.626 1.165 2.626 2.599.018.699-.29 1.344-.761 1.828zm8.948-21.293h-5.615v2.509h5.615v14.124a1.995 1.995 0 01-1.992 2.007h.018-3.786c-.434-2.688-3.061-4.642-5.85-4.212-2.192.341-3.913 2.061-4.257 4.212h-17.516c-.434-2.688-3.061-4.642-5.85-4.212-2.192.341-3.913 2.061-4.257 4.212h-3.007c-.561 0-.978-.466-.978-1.022v-4.893s.036-.035.055-.035l8.404-3.37h1.069-.091v-6.811h.036-.036v-4.301h37.006c.598 0 1.032.555 1.032 1.147v.645z" fill="#7FB6E9"/><path d="M727.214 253.088v2.509h5.615v4.481h-5.615v-.144 2.474h27.949c2.427 0 4.456-1.9 4.456-4.302v-5.018h-32.405zm13.766 6.99h-5.615v-4.481h5.615v4.481zm7.97 0h-5.434v-4.481h5.434v4.481zm8.151-1.972c0 1.04-.869 1.793-1.92 1.793h-3.695v-4.302h5.615v2.509zm-94.721-36.571l9.473 4.053a47.336 47.336 0 0018.563 3.775h14.338c.661 0 1.536.536 1.536 1.287v1.715h5.932c1.386 0 2.496-1.136 2.496-2.552 0-2.723-2.198-4.954-4.886-4.954h-10.028c-1.238 0-2.411.515-3.286 1.416-.235.236-.576.407-.896.407-.341 0-.662-.15-.896-.386-.491-.493-.491-1.33 0-1.844 1.365-1.373 3.179-2.166 5.099-2.166h10.028c3.649 0 6.743 2.659 7.361 6.305l.107.772-.405 2.573-.256.429a5.071 5.071 0 01-4.417 2.574h-7.468c-.661 0-1.024-.536-1.024-1.266v-1.737h-13.314a49.66 49.66 0 01-19.565-3.989l-10.028-4.246a1.307 1.307 0 01-.726-.815l2.262-1.351z" fill="#fff"/><path d="M717.3 229.364h15.276c.086 0 .171 0 .235-.022.619-.064 1.131-.365 1.494-.965.192-.3.554-1.072.17-2.016a13.85 13.85 0 00-.789-1.608l-.278-.494-.533.022-.021-.022c-.043 0-.107-.064-.171-.064h-7.916a1.287 1.287 0 010-2.573h5.505l.213-.772-1.365-.708c-1.856-1.072-4.033-1.651-6.294-1.651h-41.67c-.448 0-.832-.236-1.067-.601l-6.508-10.187h-4.096l1.621 9.265a1.27 1.27 0 01-.277 1.051c-.256.3-.597.429-.981.429h-8.407l.939 3.109-2.262 1.351-1.621-5.34a1.315 1.315 0 01.192-1.158c.234-.321.618-.557 1.024-.557h8.598l-1.621-9.243c-.064-.365.042-.73.277-1.03.235-.279.576-.472.982-.472h6.315c.448 0 .854.215 1.067.558l6.529 10.165h.469c5.313 0 27.61.043 40.497.043 6.187 0 11.671 3.753 14.018 9.522a4.836 4.836 0 01-.384 4.354c-.811 1.286-2.134 2.08-3.606 2.166-.086 0-.171 0-.214.021-.021 0-.042-.021-.064-.021h-15.682l.406-2.552z" fill="#7FB6E9"/><g clip-path="url(#clip2)"><path d="M700.834 284.563c-.709 0-1.265.555-1.265 1.22 0 .666.575 1.22 1.265 1.22.691 0 1.266-.554 1.266-1.22 0-.665-.575-1.22-1.266-1.22zm-5.081 0c-.709 0-1.265.555-1.265 1.22 0 .666.575 1.22 1.265 1.22.71 0 1.266-.554 1.266-1.22 0-.665-.576-1.22-1.266-1.22zm-5.1 0c-.71 0-1.266.555-1.266 1.22 0 .666.575 1.22 1.266 1.22.709 0 1.265-.554 1.265-1.22 0-.665-.556-1.22-1.265-1.22z" fill="#004583"/><path d="M644.845 295.597v-9.796c0-.684.767-1.109 1.457-1.109h4.103v-7.393h2.493v7.393h5.004l-1.265-7.393h2.569l1.266 7.393h21.782l2.186-4.269a1.288 1.288 0 011.131-.721h23.259c.71 0 1.266.536 1.266 1.201 0 5.434-2.493 10.794-6.769 14.805a7.568 7.568 0 012.224 1.368c.921.813 2.32 1.183 3.298 1.201.71 0 1.266.592 1.266 1.275 0 .666-.575 1.239-1.266 1.239h-.019c-1.783 0-3.739-.703-4.985-1.811-.978-.869-2.109-1.35-3.26-1.165-.939 0-1.841.425-2.646 1.128-2.799 2.458-6.539 2.421-9.338-.037-1.822-1.608-4.084-1.627-5.906-.019-2.799 2.458-6.538 2.458-9.338 0-1.821-1.608-4.467-1.608-6.289 0-1.361 1.183-3.087 1.848-4.87 1.848a7.264 7.264 0 01-4.852-1.848c-1.821-1.608-4.084-1.608-5.905 0-.23.203-.499.407-.767.573a1.177 1.177 0 01-.461.277c-1.169.629-2.607 1.017-3.892.98a1.246 1.246 0 01-1.265-1.238 1.266 1.266 0 011.265-1.22h.058c.326 0 .632-.037.977-.111l-1.955-1.645c-.307-.222-.556-.555-.556-.906zm2.492-.554l2.359 1.922c2.78-2.366 6.596-2.329 9.357.092 1.822 1.608 4.468 1.608 6.289 0a7.352 7.352 0 014.851-1.848c1.784 0 3.509.665 4.852 1.848 1.821 1.608 4.084 1.608 5.905 0 2.8-2.458 6.539-2.458 9.338 0 1.822 1.608 4.085 1.608 5.906.019a7.04 7.04 0 013.758-1.719c4.43-3.345 7.172-8.077 7.555-13.067h-21.149l-2.186 4.177c-.211.406-.652.628-1.132.628h-35.703v7.948zm8.437-22.549h-2.876v2.403h-2.493v-3.808c0-.684.671-1.183 1.362-1.183h5.081c.613 0 1.15.481 1.246 1.072l.691 3.919h-2.589l-.422-2.403z" fill="#7FB6E9"/><path d="M671.612 268.557c.096-.591.633-1.053 1.266-1.053h6.116v-3.771c0-.684.806-1.035 1.515-1.035h7.632c.709 0 1.016.37 1.016 1.035v3.771h11.677c.441 0 .786.185 1.017.536.23.351.191.776 0 1.164l-2.531 4.621v5.877h-2.493v-6.154c0-.185.153-.352.23-.536l1.726-3.106h-24.812l-2.32 14.787h-2.57l2.531-16.136zm10.048-1.053h4.985v-2.403h-4.985v2.403z" fill="#fff"/><path d="M690.192 272.494h3.931v3.789h-3.931v-3.789zm-6.615 0h3.931v3.789h-3.931v-3.789zm-6.634 0h3.931v3.789h-3.931v-3.789z" fill="#004583"/><path d="M650.405 274.896v2.403h8.801l-.421-2.403h-8.38z" fill="#fff"/></g><g filter="url(#filter4_d)"><circle cx="412.5" cy="101.5" r="80.5" fill="#19C5C2"/></g><circle cx="411.472" cy="181.472" r="5.5" transform="rotate(61.136 411.472 181.472)" fill="#004583"/><path stroke="#004583" d="M411.444 180.943v57"/><path d="M411.615 216.008l-6.12-10.599 11.388.492-5.268 10.107z" fill="#004583"/><circle cx="411.472" cy="236.472" r="5.5" transform="rotate(61.136 411.472 236.472)" fill="#004583"/><path d="M437.533 105.066h-7.666v3.067h7.666c10.159 0 18.4 8.242 18.4 18.4 0 10.158-8.241 18.4-18.4 18.4-10.158 0-18.4-8.242-18.4-18.4v-4.6h-3.066v4.6c0 11.864 9.602 21.467 21.466 21.467 11.865 0 21.467-9.603 21.467-21.467 0-11.864-9.602-21.467-21.467-21.467zm-30.666 21.467c0 10.158-8.242 18.4-18.4 18.4-10.159 0-18.4-8.242-18.4-18.4 0-10.158 8.241-18.4 18.4-18.4h6.133v-3.067h-6.133c-11.865 0-21.467 9.603-21.467 21.467 0 11.864 9.602 21.467 21.467 21.467 11.864 0 21.466-9.603 21.466-21.467v-4.6h-3.066v4.6zm-18.4-27.6h9.2v-3.066h-9.2c-10.159 0-18.4-8.242-18.4-18.4 0-10.159 8.241-18.4 18.4-18.4 10.158 0 18.4 8.241 18.4 18.4v4.6h3.066v-4.6c0-11.864-9.602-21.467-21.466-21.467C376.602 56 367 65.603 367 77.467c0 11.864 9.602 21.466 21.467 21.466zm30.666-21.466c0-10.159 8.242-18.4 18.4-18.4 10.159 0 18.4 8.241 18.4 18.4 0 10.158-8.241 18.4-18.4 18.4H431.4v3.066h6.133c11.865 0 21.467-9.602 21.467-21.466S449.398 56 437.533 56c-11.864 0-21.466 9.603-21.466 21.467v4.6h3.066v-4.6z" fill="#004583"/><path d="M382.333 65.2v3.067H380.8c-2.53 0-4.6 2.07-4.6 4.6v12.266c0 2.53 2.07 4.6 4.6 4.6h15.333c2.53 0 4.6-2.07 4.6-4.6V72.867c0-2.53-2.07-4.6-4.6-4.6H394.6V65.2h-3.067v3.067H385.4V65.2h-3.067zm15.334 19.933c0 .844-.69 1.534-1.534 1.534H380.8c-.843 0-1.533-.69-1.533-1.534v-7.666h18.4v7.666zm-1.534-13.8c.844 0 1.534.69 1.534 1.534V74.4h-18.4v-1.533c0-.844.69-1.534 1.533-1.534h15.333z" fill="#fff"/><path d="M386.933 80.533h-3.066V83.6h3.066v-3.067zm6.134 0H390V83.6h3.067v-3.067zm32.64 48.627l11.826 11.826 11.826-11.826a8.027 8.027 0 000-11.366 8.03 8.03 0 00-11.366 0l-.44.441-.441-.441a8.03 8.03 0 00-11.366 0c-3.163 3.124-3.163 8.223-.039 11.366zm2.186-9.2a4.985 4.985 0 017.034 0l2.626 2.626 2.625-2.626a4.987 4.987 0 017.035 0 4.987 4.987 0 010 7.034l-9.68 9.641-9.64-9.641a4.951 4.951 0 010-7.034zm-27.16 8.106v-4.791l-1.878-7.475h-20.777l-1.878 7.475v4.791h1.533v6.134H376.2v3.066h24.533V134.2H399.2v-6.134h1.533zm-4.6 6.134H380.8v-6.134h15.333v6.134zm1.534-9.2h-18.4v-1.342l1.188-4.792h16.004l1.189 4.792V125h.019z" fill="#fff"/><path d="M408.4 92.436v3.373l-8.242 3.527 2.109 4.198v8.836h-1.534v3.066h24.534v-3.066h-1.534v-8.836l2.109-4.198-8.242-3.526v-3.374a4.587 4.587 0 00-3.067-4.332V84.77h-3.066v3.335a4.57 4.57 0 00-3.067 4.332zm-3.067 12.267h3.067v7.667h-3.067v-7.667zm9.2 0v7.667h-3.066v-7.667h3.066zm3.067 7.667v-7.667h3.067v7.667H417.6zm3.661-10.734h-16.503l-.383-.766 8.625-3.7 8.625 3.7-.364.766zm-8.261-7.8l-1.533.651v-2.05c0-.844.69-1.534 1.533-1.534s1.533.69 1.533 1.533v2.051L413 93.835z" fill="#004583"/><path d="M442.78 83.48l.714 4.37c.104.672.678 1.15 1.339 1.15h1.81A1.37 1.37 0 00448 87.62c0-.76-.609-1.38-1.357-1.38h-.661l-.714-4.37a1.353 1.353 0 00-1.339-1.15h-6.334a.465.465 0 01-.452-.46v-2.3h4.071a1.37 1.37 0 001.357-1.38c0-.76-.609-1.38-1.357-1.38h-4.071v-1.15c1.583-.566 2.714-2.105 2.714-3.91 0-2.282-1.827-4.14-4.071-4.14-2.245 0-4.072 1.858-4.072 4.14a4.155 4.155 0 002.715 3.91v1.291C431.332 75.98 429 78.774 429 82.1c0 3.804 3.045 6.9 6.786 6.9 3.271 0 6.02-2.37 6.646-5.52h.348zm-6.977-14.72c.748 0 1.357.62 1.357 1.38 0 .76-.609 1.38-1.357 1.38a1.37 1.37 0 01-1.357-1.38c0-.76.592-1.38 1.357-1.38zm0 17.48c-2.244 0-4.071-1.858-4.071-4.14a4.156 4.156 0 012.714-3.91v2.07c0 1.77 1.427 3.22 3.167 3.22h2.018c-.557 1.61-2.071 2.76-3.828 2.76z" fill="#fff"/><g filter="url(#filter5_d)"><circle cx="115.5" cy="257.5" r="80.5" fill="#9BCA00"/></g><g clip-path="url(#clip3)"><path d="M115.422 248.027c-7.34 0-13.315 5.927-13.338 13.286.023 1.431.269 2.84.694 4.205a37.4 37.4 0 002.216 4.182c1.946 3.4 4.9 8.522 4.9 10.445 0 .515.425.962.963.962h9.13a.97.97 0 00.962-.962c0-1.901 2.931-7.045 4.901-10.445.828-1.342 1.588-2.728 2.215-4.182.448-1.365.671-2.774.694-4.205-.023-7.359-5.997-13.286-13.337-13.286zm10.808 16.864a42.478 42.478 0 01-2.081 3.847c-2.462 4.295-4.543 8.052-5.035 10.446h-7.429c-.493-2.371-2.574-6.151-5.035-10.446a39.723 39.723 0 01-2.082-3.847c-.358-1.163-.581-2.37-.604-3.6 0-6.308 5.125-11.43 11.435-11.43 6.311 0 11.435 5.122 11.435 11.43a12.145 12.145 0 01-.604 3.6zm-7.474 26.863l-1.298.76h-4.073l-1.298-.76a.95.95 0 00-1.298.335.95.95 0 00.336 1.298l1.521.872a.889.889 0 00.47.134h4.565a.884.884 0 00.47-.134l1.522-.872a.95.95 0 00.336-1.298c-.224-.425-.806-.581-1.253-.335zm-7.161-6.867h.09l7.631-.761c.514-.044.895-.514.85-1.051-.045-.514-.515-.894-1.052-.85l-7.63.761c-.515.044-.896.514-.851 1.051.067.492.492.85.962.85zm-.94 2.013c.045.492.47.85.962.85h.09l7.631-.76c.514-.045.895-.515.85-1.052-.045-.514-.515-.894-1.052-.849l-7.63.76a.971.971 0 00-.851 1.051zm0 2.84c.045.492.47.85.962.85h.09l7.631-.76c.514-.045.895-.515.85-1.052-.045-.514-.515-.894-1.052-.85l-7.63.761a.985.985 0 00-.851 1.051z" fill="#00386C"/><path d="M115.421 245.858a.969.969 0 00.962-.962v-6.665a.969.969 0 00-.962-.961.968.968 0 00-.962.961v6.665c0 .537.425.962.962.962zm12.778 4.764l.022-.022 4.722-4.719a.932.932 0 00.022-1.342.932.932 0 00-1.342-.023l-.023.023-4.722 4.719a.932.932 0 00-.022 1.342c.336.38.962.38 1.343.022zm11.032 10.468h-6.668a.97.97 0 00-.963.962.97.97 0 00.963.961h6.668a.969.969 0 00.962-.961c-.022-.537-.447-.962-.962-.962zm-11.01 12.413a.973.973 0 00-1.342 0 .973.973 0 000 1.342l4.721 4.719c.381.358.985.358 1.343-.022a.945.945 0 000-1.32l-4.722-4.719zm-25.6 0l-4.721 4.719a.973.973 0 000 1.342.947.947 0 00.67.268.947.947 0 00.672-.268l4.722-4.719c.358-.38.358-.984-.022-1.342a.947.947 0 00-1.321 0zm-3.401-11.451a.969.969 0 00-.962-.962H91.61a.97.97 0 00-.962.962c0 .514.425.961.962.961h6.669c.515-.022.94-.447.94-.961zm.022-17.513a.933.933 0 00-1.343-.023.932.932 0 00-.022 1.342l.022.023 4.722 4.719c.179.179.425.291.671.268a.97.97 0 00.963-.961.947.947 0 00-.269-.671l-4.744-4.697zm22.154 18.496a.75.75 0 00-.582.022l-5.415 1.812-5.416-1.812a.98.98 0 00-1.208.604 1.038 1.038 0 00-.022.582l3.804 12.368a.959.959 0 001.186.627c.492-.157.783-.694.626-1.186l-3.222-10.601 3.961 1.319a.933.933 0 00.604 0l3.961-1.319-3.267 10.601c-.157.492.134 1.029.626 1.186a.958.958 0 001.186-.627l3.805-12.368c.156-.515-.112-1.051-.627-1.208z" fill="#fff"/><path d="M158.565 252.12l-40.481-37.15c-1.477-1.297-3.737-1.297-5.147 0l-23.496 21.583v-10.266c0-.782-.605-1.476-1.478-1.476-.872 0-1.476.604-1.476 1.476v12.883l-14.031 12.861c-.604.514-.604 1.476-.09 2.08.515.604 1.477.604 2.081.089l40.415-37.06c.358-.358.962-.358 1.297 0l40.482 37.06a1.503 1.503 0 002.081-.089c.448-.604.358-1.476-.157-1.991z" fill="#00386C"/><path d="M144.445 251.696a1.46 1.46 0 00-1.477 1.476v44.465c0 .268-.179.514-.514.514H88.3c-.269 0-.515-.268-.515-.514v-44.465a1.46 1.46 0 00-1.477-1.476c-.873 0-1.477.604-1.477 1.476v44.465c0 1.923 1.477 3.399 3.401 3.399h54.155a3.398 3.398 0 003.401-3.399v-44.465c.134-.782-.47-1.476-1.343-1.476z" fill="#00386C"/></g><circle cx="631.838" cy="592.762" r="5.5" transform="rotate(-178.864 631.838 592.762)" fill="#004583"/><path stroke="#004583" d="M632.31 593.002l-49.364-28.5"/><path d="M610.328 587.407l6.119-10.599-11.387.491 5.268 10.108z" fill="#004583"/><circle cx="584.207" cy="565.262" r="5.5" transform="rotate(-178.864 584.207 565.262)" fill="#004583"/><circle r="5.5" transform="scale(1 -1) rotate(1.136 29884.708 8994.327)" fill="#004583"/><path stroke="#004583" d="M183.735 591.002l49.363-28.5"/><path d="M208.119 584.407L202 573.808l11.387.491-5.268 10.108z" fill="#004583"/><circle r="5.5" transform="scale(1 -1) rotate(1.136 28521.677 11410.146)" fill="#004583"/><circle cx="631.838" cy="299.207" r="5.5" transform="rotate(121.136 631.838 299.207)" fill="#004583"/><path stroke="#004583" d="M632.282 298.917l-49.364 28.5"/><path d="M602 316.598L608.119 306l5.268 10.107-11.387.491z" fill="#004583"/><circle cx="584.207" cy="326.707" r="5.5" transform="rotate(121.136 584.207 326.707)" fill="#004583"/><circle r="5.5" transform="scale(1 -1) rotate(-58.864 -175.712 -314.348)" fill="#004583"/><path stroke="#004583" d="M183.763 301.917l49.363 28.5"/><circle r="5.5" transform="scale(1 -1) rotate(-58.864 -176.267 -370.308)" fill="#004583"/><path d="M202 319.598L208.119 309l5.268 10.107-11.387.491z" fill="#004583"/><defs><filter id="filter0_d" x="136" y="207" width="545" height="538" filterUnits="userSpaceOnUse" color-interpolation-filters="sRGB"><feFlood flood-opacity="0" result="BackgroundImageFix"/><feColorMatrix in="SourceAlpha" values="0 0 0 0 0 0 0 0 0 0 0 0 0 0 0 0 0 0 127 0"/><feOffset dy="30"/><feGaussianBlur stdDeviation="30"/><feColorMatrix values="0 0 0 0 0 0 0 0 0 0.231373 0 0 0 0 0.45098 0 0 0 0.2 0"/><feBlend in2="BackgroundImageFix" result="effect1_dropShadow"/><feBlend in="SourceGraphic" in2="effect1_dropShadow" result="shape"/></filter><filter id="filter1_d" x="0" y="527" width="230" height="230" filterUnits="userSpaceOnUse" color-interpolation-filters="sRGB"><feFlood flood-opacity="0" result="BackgroundImageFix"/><feColorMatrix in="SourceAlpha" values="0 0 0 0 0 0 0 0 0 0 0 0 0 0 0 0 0 0 127 0"/><feOffset dy="10"/><feGaussianBlur stdDeviation="17.5"/><feColorMatrix values="0 0 0 0 0 0 0 0 0 0.231373 0 0 0 0 0.45098 0 0 0 0.2 0"/><feBlend in2="BackgroundImageFix" result="effect1_dropShadow"/><feBlend in="SourceGraphic" in2="effect1_dropShadow" result="shape"/></filter><filter id="filter2_d" x="587" y="527" width="231" height="231" filterUnits="userSpaceOnUse" color-interpolation-filters="sRGB"><feFlood flood-opacity="0" result="BackgroundImageFix"/><feColorMatrix in="SourceAlpha" values="0 0 0 0 0 0 0 0 0 0 0 0 0 0 0 0 0 0 127 0"/><feOffset dy="10"/><feGaussianBlur stdDeviation="17.5"/><feColorMatrix values="0 0 0 0 0 0 0 0 0 0.231373 0 0 0 0 0.45098 0 0 0 0.2 0"/><feBlend in2="BackgroundImageFix" result="effect1_dropShadow"/><feBlend in="SourceGraphic" in2="effect1_dropShadow" result="shape"/></filter><filter id="filter3_d" x="587" y="154" width="231" height="231" filterUnits="userSpaceOnUse" color-interpolation-filters="sRGB"><feFlood flood-opacity="0" result="BackgroundImageFix"/><feColorMatrix in="SourceAlpha" values="0 0 0 0 0 0 0 0 0 0 0 0 0 0 0 0 0 0 127 0"/><feOffset dy="10"/><feGaussianBlur stdDeviation="17.5"/><feColorMatrix values="0 0 0 0 0 0 0 0 0 0.231373 0 0 0 0 0.45098 0 0 0 0.2 0"/><feBlend in2="BackgroundImageFix" result="effect1_dropShadow"/><feBlend in="SourceGraphic" in2="effect1_dropShadow" result="shape"/></filter><filter id="filter4_d" x="297" y="-4" width="231" height="231" filterUnits="userSpaceOnUse" color-interpolation-filters="sRGB"><feFlood flood-opacity="0" result="BackgroundImageFix"/><feColorMatrix in="SourceAlpha" values="0 0 0 0 0 0 0 0 0 0 0 0 0 0 0 0 0 0 127 0"/><feOffset dy="10"/><feGaussianBlur stdDeviation="17.5"/><feColorMatrix values="0 0 0 0 0 0 0 0 0 0.231373 0 0 0 0 0.45098 0 0 0 0.2 0"/><feBlend in2="BackgroundImageFix" result="effect1_dropShadow"/><feBlend in="SourceGraphic" in2="effect1_dropShadow" result="shape"/></filter><filter id="filter5_d" x="0" y="152" width="231" height="231" filterUnits="userSpaceOnUse" color-interpolation-filters="sRGB"><feFlood flood-opacity="0" result="BackgroundImageFix"/><feColorMatrix in="SourceAlpha" values="0 0 0 0 0 0 0 0 0 0 0 0 0 0 0 0 0 0 127 0"/><feOffset dy="10"/><feGaussianBlur stdDeviation="17.5"/><feColorMatrix values="0 0 0 0 0 0 0 0 0 0.231373 0 0 0 0 0.45098 0 0 0 0.2 0"/><feBlend in2="BackgroundImageFix" result="effect1_dropShadow"/><feBlend in="SourceGraphic" in2="effect1_dropShadow" result="shape"/></filter><clipPath id="clip0"><path fill="#fff" transform="translate(76 587)" d="M0 0h74v90H0z"/></clipPath><clipPath id="clip1"><path fill="#fff" transform="translate(660.074 588.986)" d="M0 0h83.763v83.763H0z"/></clipPath><clipPath id="clip2"><path fill="#fff" transform="matrix(-1 0 0 1 710.115 262.698)" d="M0 0h65.27v38.074H0z"/></clipPath><clipPath id="clip3"><path fill="#fff" transform="translate(71.987 213.986)" d="M0 0h87.027v87.027H0z"/></clipPath></defs></svg>